<?xml version="1.0" encoding="UTF-8"?>
<svg id="Layer_2" data-name="Layer 2" xmlns="http://www.w3.org/2000/svg" viewBox="0 0 668.59 285.56">
  <defs>
    <style>
      .cls-1 {
        fill: #fff;
        opacity: 0;
      }

      .cls-2 {
        letter-spacing: -.04em;
      }

      .cls-3 {
        font-family: Montserrat-Regular, Montserrat;
        font-variation-settings: 'wght' 400;
      }

      .cls-3, .cls-4 {
        fill: #000928;
        font-size: 70.4px;
      }

      .cls-5 {
        fill: #381998;
      }

      .cls-6 {
        letter-spacing: 0em;
      }

      .cls-7 {
        letter-spacing: -.01em;
      }

      .cls-8 {
        letter-spacing: -.02em;
      }

      .cls-4 {
        font-family: Montserrat-Bold, Montserrat;
        font-variation-settings: 'wght' 700;
        font-weight: 700;
      }

      .cls-9 {
        fill: #42b6c5;
      }
    </style>
  </defs>
  <g id="Layer_1-2" data-name="Layer 1">
    <g>
      <rect class="cls-1" x="191.52" y="-191.52" width="285.56" height="668.59" rx="80" ry="80" transform="translate(477.08 -191.52) rotate(90)"/>
      <g>
        <path class="cls-9" d="M210.45,99.08c0-.08.07-.14.15-.13,3.65.4,6.84,1.13,9.57,2.18,4.38,1.71,7.78,4.22,10.2,7.54,2.43,3.32,4.13,7.36,5.11,12.09.97,4.71,1.46,10.08,1.47,16.11,0,.07-.06.13-.13.13h-16.49c-.07,0-.13-.06-.13-.13-.02-7.13-1.52-11.94-4.52-14.44-1.37-1.14-3.09-2.03-5.14-2.64-.05-.02-.09-.06-.09-.12v-20.6Z"/>
        <path class="cls-5" d="M147.93,80h19.84c.07,0,.13.06.13.13.07,6.91,1.52,11.71,4.35,14.4,2.85,2.71,7.45,4.06,13.81,4.06h16.22c.07,0,.13.06.13.13v19.88c0,.07-.06.13-.13.13-.61-.03-1.25-.05-1.9-.05h-20c-3.13,0-6.1-.48-8.92-1.47-2.82-.98-5.31-2.83-7.49-5.56-2.16-2.71-3.89-6.59-5.16-11.62-.01-.06-.07-.1-.12-.1h-1.6c-.06,0-.11.04-.12.1-1.25,5.03-2.96,8.91-5.12,11.62-2.18,2.73-4.66,4.59-7.45,5.56-2.78.98-5.74,1.47-8.87,1.47h-20.17c-6.36,0-11.02,1.26-13.98,3.77-2.94,2.5-4.41,7.31-4.43,14.44,0,.07-.06.13-.13.13h-16.66c-.07,0-.13-.06-.13-.13,0-6.03.5-11.4,1.47-16.11.98-4.74,2.69-8.77,5.15-12.09,2.46-3.32,5.87-5.83,10.25-7.54,4.38-1.7,9.95-2.55,16.7-2.55h16.23c6.37,0,10.95-1.37,13.77-4.1,2.81-2.71,4.21-7.5,4.23-14.35,0-.07.06-.13.13-.13Z"/>
        <path class="cls-9" d="M106.49,185.28c0,.08-.07.14-.15.13-3.65-.4-6.84-1.13-9.57-2.18-4.38-1.71-7.78-4.22-10.2-7.54-2.43-3.32-4.13-7.36-5.11-12.09-.97-4.71-1.46-10.08-1.47-16.11,0-.07.06-.13.13-.13h16.49c.07,0,.13.06.13.13.02,7.13,1.52,11.94,4.52,14.44,1.37,1.14,3.09,2.03,5.14,2.64.05.02.09.06.09.12v20.6Z"/>
        <path class="cls-5" d="M169.18,204.36h-19.84c-.07,0-.13-.06-.13-.13-.07-6.91-1.52-11.71-4.35-14.4-2.85-2.71-7.45-4.06-13.81-4.06h-16.22c-.07,0-.13-.06-.13-.13v-19.88c0-.07.06-.13.13-.13.61.03,1.25.05,1.9.05h20c3.13,0,6.1.48,8.92,1.47,2.82.98,5.31,2.83,7.49,5.56,2.16,2.71,3.89,6.59,5.16,11.62.01.06.07.1.12.1h1.6c.06,0,.11-.04.12-.1,1.25-5.03,2.96-8.91,5.12-11.62,2.18-2.73,4.66-4.59,7.45-5.56,2.78-.98,5.74-1.47,8.87-1.47h20.17c6.36,0,11.02-1.26,13.98-3.77,2.94-2.5,4.41-7.31,4.43-14.44,0-.07.06-.13.13-.13h16.66c.07,0,.13.06.13.13,0,6.03-.5,11.4-1.47,16.11-.98,4.74-2.69,8.77-5.15,12.09-2.46,3.32-5.87,5.83-10.25,7.54-4.38,1.7-9.95,2.55-16.7,2.55h-16.23c-6.37,0-10.95,1.37-13.77,4.1-2.81,2.71-4.21,7.5-4.23,14.35,0,.07-.06.13-.13.13Z"/>
        <circle class="cls-9" cx="123.52" cy="142.18" r="14.13"/>
        <circle class="cls-9" cx="196.32" cy="142.18" r="14.13"/>
      </g>
      <text class="cls-4" transform="translate(255.32 129.28)"><tspan class="cls-7" x="0" y="0">T</tspan><tspan class="cls-2" x="42.66" y="0">r</tspan><tspan x="70.26" y="0">aitz</tspan></text>
      <text class="cls-3" transform="translate(255.63 191.56)"><tspan class="cls-6" x="0" y="0">A</tspan><tspan x="50.12" y="0">cade</tspan><tspan class="cls-8" x="221.53" y="0">m</tspan><tspan x="294.88" y="0">y</tspan></text>
    </g>
  </g>
</svg>